<svg xmlns="http://www.w3.org/2000/svg" viewBox="0 0 241.27 269.66">
  <g id="Layer_2" data-name="Layer 2">
    <g id="Working">
      <g id="CSS">
        <path d="M241.27,0H0L21.29,241.27l99.35,28.39L220,241.27,241.27,0Z"/>
        <path d="M120.64,21.64V248l79.47-22.7L217.86,21.64Z"/>
        <path d="M185.21,56.42H120.64V84.8h34.77l-2.13,28.39H120.64v28.38h31.22l-2.13,31.93-29.09,9.94v29.8l56.06-18.45,5-81.6h0Z" fill="#fff"/>
        <path d="M120.64,56.42V84.8H57.48L55.35,56.42ZM88,113.19l1.42,28.38h31.23V113.19Zm2.84,42.57H62.45l2.13,39,56.06,18.45v-29.8l-29.1-9.94Z" fill="#eee"/>
      </g>
    </g>
  </g>
</svg>
