<?xml version="1.0" encoding="UTF-8"?>
<svg xmlns="http://www.w3.org/2000/svg" viewBox="0 0 256 249.68">
  <g id="Layer_1" data-name="Layer 1"/>
  <g id="Layer_2" data-name="Layer 2">
    <g id="Final_Icons" data-name="Final Icons">
      <path d="M127.99,0C57.31,0,0,57.31,0,128.01c0,56.55,36.67,104.52,87.54,121.45,6.4,1.17,8.74-2.78,8.74-6.17,0-3.04-.11-11.09-.17-21.77-35.61,7.74-43.12-17.16-43.12-17.16-5.82-14.79-14.21-18.72-14.21-18.72-11.62-7.94,.88-7.78,.88-7.78,12.85,.91,19.61,13.19,19.61,13.19,11.42,19.56,29.96,13.91,37.25,10.64,1.16-8.27,4.47-13.91,8.13-17.11-28.42-3.23-58.3-14.21-58.3-63.26,0-13.97,4.99-25.4,13.18-34.35-1.32-3.24-5.71-16.25,1.25-33.87,0,0,10.75-3.44,35.2,13.12,10.21-2.84,21.16-4.26,32.04-4.31,10.87,.05,21.82,1.47,32.04,4.31,24.44-16.56,35.16-13.12,35.16-13.12,6.98,17.62,2.59,30.64,1.27,33.87,8.2,8.95,13.16,20.37,13.16,34.35,0,49.17-29.93,59.99-58.44,63.16,4.6,3.95,8.69,11.76,8.69,23.7,0,17.11-.16,30.92-.16,35.11,0,3.42,2.31,7.41,8.8,6.16,50.82-16.96,87.46-64.9,87.46-121.44C256,57.31,198.69,0,127.99,0Z" fill-rule="evenodd"/>
    </g>
  </g>
</svg>