<svg xmlns="http://www.w3.org/2000/svg" viewBox="0 0 237.78 265.75">
  <g id="Layer_2" data-name="Layer 2">
    <g id="Working">
      <g id="HTML">
        <path d="M237.78,0H0L21,237.78l97.91,28,97.91-28L237.78,0Z"/>
        <path d="M237.78,0H0L21,237.78l97.91,28,97.91-28L237.78,0Z"/>
        <path d="M118.89,21.33V244.42L197.22,222,214.7,21.33Z"/>
        <path d="M118.89,139.52v-28H179L174.14,192l-55.25,18.19V180.78L147.56,171l2.1-31.47Zm62.24-56,2.1-28H118.89v28Z" fill="#fff"/>
        <path d="M118.89,180.78v29.38L63.64,192l-2.8-38.46h28L90.22,171ZM84.62,83.57h34.27v-28H55.25l4.89,83.92h58.75v-28H86.72Z" fill="#eee"/>
      </g>
    </g>
  </g>
</svg>
