<svg xmlns="http://www.w3.org/2000/svg" viewBox="0 0 268.48 268.48">
  <g id="Layer_2" data-name="Layer 2">
    <g id="Working">
      <g id="Illustrator">
        <path d="M0,29.83A29.84,29.84,0,0,1,29.83,0H238.65a29.83,29.83,0,0,1,29.83,29.83V238.65a29.82,29.82,0,0,1-29.83,29.83H29.83A29.83,29.83,0,0,1,0,238.65Z"/>
        <path d="M22.37,22.37V246.11H246.11V22.37ZM131.94,186.45l-5.69-21.7H97.05l-5.68,21.7H68.72l33.14-106h19.59l33.36,106Zm53.39,0H164.65v-78.8h20.68Zm-2.22-91.33a11.22,11.22,0,0,1-19.42-7.87,10.7,10.7,0,0,1,3.06-7.87,12.41,12.41,0,0,1,16.32,0,10.65,10.65,0,0,1,3.06,7.87A10.91,10.91,0,0,1,183.11,95.12Z" fill="#fff"/>
        <path d="M101.72,146.9h19.81l-9.91-37.8Z" fill="#fff"/>
      </g>
    </g>
  </g>
</svg>
