<svg xmlns="http://www.w3.org/2000/svg" viewBox="0 0 253.85 253.85">
  <g id="Layer_2" data-name="Layer 2">
    <g id="Working">
      <g id="JavaScript">
        <path d="M0,253.85V0H253.85V253.85Z"/>
        <path d="M166,190c4.88,7.92,10.18,15.52,21.41,15.52,9.44,0,14.39-4.69,14.39-11.18,0-7.76-5.12-10.52-15.5-15l-5.69-2.43c-16.42-7-27.35-15.69-27.35-34.13,0-17,13-29.93,33.34-29.93,14.48,0,24.88,5,32.38,18.14l-17.72,11.34c-3.9-7-8.12-9.71-14.66-9.71s-10.89,4.21-10.89,9.71c0,6.79,4.23,9.54,14,13.75l5.7,2.43c19.35,8.24,30.27,16.66,30.27,35.59,0,20.39-16.11,31.57-37.73,31.57-21.15,0-33.15-10.62-39.84-23.75Zm-81.7.57c3.57,6.39,9,11.31,16.79,11.31,7.46,0,11.75-3,11.75-14.41V112.82h23.51V191.1c0,23.74-13.78,34.55-33.89,34.55-18.17,0-31.28-12.31-36.63-23.75Z" fill="#fff"/>
      </g>
    </g>
  </g>
</svg>
