<svg xmlns="http://www.w3.org/2000/svg" xmlns:xlink="http://www.w3.org/1999/xlink" viewBox="0 0 14.5 14.5">
  <defs>
    <linearGradient id="linear-gradient" y1="7.25" x2="14.5" y2="7.25" gradientUnits="userSpaceOnUse">
      <stop offset="0.06" stop-color="#e3d6a8"/>
      <stop offset="0.09" stop-color="#dfd09a"/>
      <stop offset="0.16" stop-color="#d6c37f"/>
      <stop offset="0.23" stop-color="#d0b969"/>
      <stop offset="0.32" stop-color="#cab158"/>
      <stop offset="0.43" stop-color="#c7ac4d"/>
      <stop offset="0.58" stop-color="#c5a946"/>
      <stop offset="1" stop-color="#c4a844"/>
    </linearGradient>
  </defs>
  <g id="Layer_2" data-name="Layer 2">
    <g id="Logo">
      <circle id="Golden_Circle" data-name="Golden Circle" cx="7.25" cy="7.25" r="7" fill="none" stroke-miterlimit="10" stroke-width="0.5" stroke="url(#linear-gradient)"/>
      <g id="B">
        <path d="M5.25,7.13h2a2,2,0,0,1,2,2v0a2,2,0,0,1-2,2h-2a0,0,0,0,1,0,0v-4A0,0,0,0,1,5.25,7.13Z" fill="none" stroke="#000" stroke-miterlimit="10" stroke-width="0.5"/>
        <path d="M5.25,3.13h2a2,2,0,0,1,2,2v0a2,2,0,0,1-2,2h-2a0,0,0,0,1,0,0v-4A0,0,0,0,1,5.25,3.13Z" fill="none" stroke="#000" stroke-miterlimit="10" stroke-width="0.5"/>
      </g>
      <g id="P">
        <path d="M5.29,3.13h2a2,2,0,0,1,2,2v0a2,2,0,0,1-2,2h-2a0,0,0,0,1,0,0V3.13a0,0,0,0,1,0,0Z" fill="none" stroke="#000" stroke-miterlimit="10" stroke-width="0.5"/>
        <line x1="5.29" y1="11.13" x2="5.29" y2="7.21" fill="none" stroke="#000" stroke-miterlimit="10" stroke-width="0.5"/>
      </g>
      <g id="K">
        <polyline points="5.22 3.13 5.22 7.13 5.22 11.13" fill="none" stroke="#000" stroke-miterlimit="10" stroke-width="0.5"/>
        <path d="M9.28,11.13c0-1.08-1.9-3.88-1.9-3.88V7s1.9-2.8,1.9-3.88" fill="none" stroke="#000" stroke-miterlimit="10" stroke-width="0.5"/>
        <line x1="5.22" y1="7.13" x2="7.21" y2="7.13" fill="none" stroke="#000" stroke-miterlimit="10" stroke-width="0.5"/>
      </g>
    </g>
  </g>
</svg>
