<svg xmlns="http://www.w3.org/2000/svg" viewBox="0 0 261.43 261.43">
  <g id="Layer_2" data-name="Layer 2">
    <g id="Working">
      <g id="Photoshop">
        <path d="M0,29.05A29.05,29.05,0,0,1,29.05,0H232.38a29.05,29.05,0,0,1,29.05,29.05V232.38a29.05,29.05,0,0,1-29.05,29.05H29.05A29.05,29.05,0,0,1,0,232.38Z"/>
        <path d="M101.78,95.67H87.25v32.2h14.32q6,0,9.23-3.9t3.26-11.35c0-5.16-1.11-9.25-3.34-12.3A10.7,10.7,0,0,0,101.78,95.67Z" fill="#fff"/>
        <path d="M21.79,21.79V239.64H239.64V21.79ZM126.1,136.44q-9,8.81-25,8.8H87.25v36.31H66.4V78.29h35.17q15.32,0,24.43,9.51t9.12,24.67Q135.12,127.65,126.1,136.44Zm67.66,40.29Q186,183,173.48,183a32.24,32.24,0,0,1-14.89-3.29,25.06,25.06,0,0,1-10.11-9.19,23.58,23.58,0,0,1-3.66-12.69H163.9c.1,3.49.91,6.12,2.45,7.87s4.05,2.62,7.55,2.62q8.08,0,8.08-7.3a6.27,6.27,0,0,0-2.44-4.72c-1.64-1.44-5.25-3.38-10.88-5.84q-12.4-5-17.06-10.43A19.81,19.81,0,0,1,147,126.58,21.45,21.45,0,0,1,154.22,110q7.28-6.56,19.25-6.55,12.61,0,20.21,6.52t7.59,17.51H181.2c0-6.24-2.59-9.36-7.8-9.36a6.94,6.94,0,0,0-7.3,7.52,5.78,5.78,0,0,0,2.27,4.5c1.52,1.3,5.07,3.16,10.71,5.57q12.27,4.54,17.34,10.11t5.07,14.43A20.2,20.2,0,0,1,193.76,176.73Z" fill="#fff"/>
      </g>
    </g>
  </g>
</svg>
